<svg id="tarjetas" xmlns="http://www.w3.org/2000/svg" xmlns:xlink="http://www.w3.org/1999/xlink" width="119.235" height="106.234" viewBox="0 0 119.235 106.234">
  <defs>
    <clipPath id="clip-path">
      <rect id="Rectángulo_43" data-name="Rectángulo 43" width="119.235" height="106.234" fill="#fff"/>
    </clipPath>
  </defs>
  <g id="Grupo_284" data-name="Grupo 284">
    <g id="Grupo_62" data-name="Grupo 62">
      <g id="Grupo_61" data-name="Grupo 61" clip-path="url(#clip-path)">
        <path id="Trazado_49" data-name="Trazado 49" d="M0,134.949c.843-2.866,2.865-4.241,5.69-4.974,6.639-1.724,13.22-3.667,19.842-5.457a1.774,1.774,0,0,0,1.476-1.589c1-4.9,2.04-9.793,3.073-14.686.071-.334.183-.66.295-1.053,4.3.908,8.541,1.8,12.781,2.7,6.333,1.344,12.663,2.7,19,4.018a4.108,4.108,0,0,0,1.817-.1c4.457-1.183,8.883-2.486,13.358-3.593a5.516,5.516,0,0,1,6.457,3.516,29.5,29.5,0,0,1,1.173,4.013,1.489,1.489,0,0,0,1.333,1.314q13.436,2.8,26.859,5.65c.451.1.9.209,1.454.339l-2.053,9.688c-1,4.741-1.994,9.486-3.019,14.223-.816,3.767-3.647,5.541-7.456,4.73-2.451-.522-4.905-1.027-7.558-1.581.72,2.608,1.374,5.021,2.054,7.428a5.622,5.622,0,0,1-1.774,6.311,7.946,7.946,0,0,1-2.889,1.4q-27.827,7.772-55.675,15.47Q28.509,184.859,20.776,187c-4.1,1.135-6.968-.437-8.1-4.5Q6.418,159.915.182,137.329A1.142,1.142,0,0,0,0,137.046v-2.1M10.067,155.29c.122.487.2.826.292,1.161q3.426,12.327,6.855,24.653c.458,1.646.727,1.8,2.4,1.334l70.927-19.71c1.66-.461,1.8-.723,1.343-2.391q-2.169-7.848-4.339-15.7c-.92-3.318-1.852-6.633-2.813-10.075L10.067,155.29m71.867-30.82c-.765-2.759-1.5-5.4-2.23-8.042-.473-1.708-.722-1.847-2.474-1.361Q55.164,121.182,33.1,127.3q-13.385,3.711-26.766,7.434c-1.62.45-1.793.764-1.337,2.405.135.485.264.972.4,1.457.618,2.191,1.238,4.382,1.866,6.605L81.934,124.47m10.5,12.773c-.049,1.9.587,2.743,2.042,3.07q4.02.9,8.062,1.7a2.354,2.354,0,0,0,3.009-1.978q.925-4.075,1.728-8.177a2.2,2.2,0,0,0-1.639-2.8c-2.931-.706-5.887-1.313-8.852-1.861a1.985,1.985,0,0,0-2.432,1.508c-.742,3-1.364,6.031-1.919,8.53" transform="translate(0 -81.121)" fill="#fff"/>
        <path id="Trazado_50" data-name="Trazado 50" d="M223.29,23.258c-.03.355-.062.708-.121,1.068q-.192,1.16-.377,2.322-.183,1.145-.364,2.291c-.033.209-.441,2.3-.368,2.33L137.8,13.435c.2-1.377.388-2.706.587-4.032.208-1.38.438-2.758.641-4.139a5.777,5.777,0,0,1,7.289-5.1Q162.7,3.6,179.079,7.074c13.006,2.752,26.005,5.536,39.018,8.256,2.51.524,4.9,2.028,5.362,4.746a7.567,7.567,0,0,1-.077,2.267c-.042.308-.067.612-.093.915" transform="translate(-104.284 0)" fill="#fff"/>
        <path id="Trazado_51" data-name="Trazado 51" d="M71.629,334.281a2.215,2.215,0,0,1,1.746-2.215q4.179-1.226,8.393-2.331a2.291,2.291,0,0,1,2.909,1.664c.836,2.78,1.621,5.578,2.337,8.392a2.294,2.294,0,0,1-1.738,2.969q-4.116,1.228-8.283,2.283a2.125,2.125,0,0,1-2.837-1.362c-.908-2.917-1.67-5.88-2.485-8.826a3.438,3.438,0,0,1-.042-.574" transform="translate(-54.209 -249.475)" fill="#fff"/>
      </g>
    </g>
  </g>
</svg>
