<svg xmlns="http://www.w3.org/2000/svg" xmlns:xlink="http://www.w3.org/1999/xlink" width="97.71" height="97.679" viewBox="0 0 97.71 97.679">
  <defs>
    <clipPath id="clip-path">
      <rect id="Rectángulo_48" data-name="Rectángulo 48" width="97.71" height="97.679" fill="#fff"/>
    </clipPath>
  </defs>
  <g id="engrane" transform="translate(-16.147 -0.369)">
    <g id="Grupo_289" data-name="Grupo 289" transform="translate(-649.459 -405.982)">
      <g id="Grupo_83" data-name="Grupo 83" transform="translate(665.606 406.351)">
        <g id="Grupo_67" data-name="Grupo 67" clip-path="url(#clip-path)">
          <path id="Trazado_60" data-name="Trazado 60" d="M0,40.8c3.177-.773,6.357-1.533,9.525-2.344.25-.064.482-.447.6-.733,1.183-2.8,2.32-5.625,3.525-8.418a1.117,1.117,0,0,0-.031-1.2c-1.5-2.438-2.955-4.9-4.424-7.352-.161-.269-.308-.547-.419-.746l11.3-11.3c2.342,1.4,4.8,2.8,7.169,4.333a2.58,2.58,0,0,0,2.97.141c2.381-1.176,4.9-2.071,7.392-3.017a1.34,1.34,0,0,0,1.021-1.055c.719-3.028,1.5-6.04,2.274-9.107h15.94c.763,3.03,1.549,6.039,2.262,9.064.157.665.489.877,1.082,1.11q4.071,1.6,8.078,3.355a1.343,1.343,0,0,0,1.458-.022c2.459-1.522,4.961-2.974,7.423-4.49a.8.8,0,0,1,1.2.136q5.069,5.12,10.19,10.189a.811.811,0,0,1,.147,1.207c-1.53,2.491-3.005,5.015-4.533,7.508a1.2,1.2,0,0,0-.037,1.284q1.78,4.1,3.431,8.252a1.272,1.272,0,0,0,.99.962c3.056.728,6.1,1.516,9.171,2.29V56.783c-2.855.716-5.7,1.476-8.573,2.123a2.145,2.145,0,0,0-1.759,1.622c-.958,2.616-2.1,5.167-3.24,7.714a1.261,1.261,0,0,0,.039,1.371c1.641,2.678,3.242,5.381,4.807,7.991L77.674,88.915c-2.56-1.535-5.215-3.094-7.831-4.717a1.573,1.573,0,0,0-1.709-.038c-2.668,1.175-5.384,2.242-8.073,3.371-.314.132-.752.361-.82.625-.817,3.165-1.575,6.345-2.348,9.521H40.856c-.748-3.051-1.519-6.1-2.225-9.159a1.34,1.34,0,0,0-1.02-1.06c-2.487-.951-5.01-1.844-7.392-3.016a2.586,2.586,0,0,0-2.972.142c-2.368,1.535-4.826,2.93-7.17,4.334L8.776,77.63c.114-.2.26-.481.421-.75,1.47-2.454,2.956-4.9,4.394-7.37a1.416,1.416,0,0,0,.075-1.089c-1.155-2.882-2.352-5.747-3.559-8.607a1.144,1.144,0,0,0-.581-.643C6.357,58.365,3.177,57.6,0,56.83V40.8M28.815,77.031c.206.12.4.221.583.342A35.285,35.285,0,0,0,42.43,82.762a1.026,1.026,0,0,1,.9.918c.619,2.529,1.278,5.049,1.874,7.583a.751.751,0,0,0,.9.7c1.781-.03,3.563-.039,5.344,0,.674.016.993-.137,1.158-.867.556-2.478,1.215-4.933,1.82-7.4.121-.495.285-.815.882-.93a34.562,34.562,0,0,0,12.947-5.341,1.129,1.129,0,0,1,1.44,0c2.189,1.355,4.414,2.65,6.607,4a.757.757,0,0,0,1.132-.14c1.256-1.308,2.531-2.6,3.852-3.839.508-.477.475-.817.134-1.367-1.324-2.132-2.577-4.309-3.9-6.44a1.2,1.2,0,0,1,.022-1.523A34.341,34.341,0,0,0,82.79,55.445a1.258,1.258,0,0,1,1.144-1.124c2.472-.586,4.927-1.245,7.4-1.831a.756.756,0,0,0,.7-.9c-.031-1.812-.051-3.627.008-5.438.023-.7-.252-.916-.873-1.062-2.473-.582-4.932-1.226-7.4-1.82a1.081,1.081,0,0,1-.948-.977A34.6,34.6,0,0,0,77.543,29.52,1.2,1.2,0,0,1,77.5,28c1.349-2.154,2.616-4.36,3.955-6.521a.858.858,0,0,0-.164-1.285c-1.288-1.23-2.557-2.483-3.775-3.781-.48-.512-.821-.465-1.367-.127-2.133,1.323-4.311,2.574-6.441,3.9a1.2,1.2,0,0,1-1.522-.031A34.116,34.116,0,0,0,55.6,14.922a1.369,1.369,0,0,1-1.246-1.254c-.562-2.444-1.23-4.864-1.807-7.305-.13-.55-.353-.711-.895-.7-1.781.03-3.563.038-5.344,0-.673-.016-.994.135-1.159.866-.556,2.478-1.223,4.931-1.814,7.4a1.085,1.085,0,0,1-.981.95,34.658,34.658,0,0,0-12.931,5.377,1,1,0,0,1-1.274-.025c-2.2-1.341-4.424-2.633-6.612-3.989a.856.856,0,0,0-1.285.163c-1.232,1.286-2.484,2.555-3.782,3.774-.508.478-.473.815-.131,1.366,1.325,2.132,2.576,4.311,3.9,6.442a1.2,1.2,0,0,1-.024,1.523,34.32,34.32,0,0,0-5.281,12.767,1.136,1.136,0,0,1-1.026,1.015c-2.5.6-4.989,1.265-7.493,1.853-.553.13-.71.352-.7.892.029,1.844.039,3.69,0,5.534-.014.616.216.8.779.928,2.5.589,4.992,1.249,7.494,1.849a1.081,1.081,0,0,1,.945.984,34.544,34.544,0,0,0,5.329,12.85,1.129,1.129,0,0,1-.01,1.44c-1.352,2.19-2.648,4.415-4,6.608a.756.756,0,0,0,.143,1.131c1.307,1.256,2.6,2.532,3.84,3.851.475.5.811.48,1.366.135,2.16-1.34,4.354-2.625,6.537-3.929.215-.129.436-.249.676-.386" fill="#fff"/>
          <path id="Trazado_61" data-name="Trazado 61" d="M107.435,136.038A28.823,28.823,0,1,1,136.274,107.2a28.876,28.876,0,0,1-28.839,28.837m.028-51.919a23.1,23.1,0,1,0,23.084,23.16,23.138,23.138,0,0,0-23.084-23.16" transform="translate(-58.572 -58.403)" fill="#fff"/>
          <path id="Trazado_62" data-name="Trazado 62" d="M123.542,140.677a17.373,17.373,0,1,1,17.347,17.372,17.4,17.4,0,0,1-17.347-17.372" transform="translate(-92.04 -91.866)" fill="#fff"/>
        </g>
      </g>
    </g>
  </g>
</svg>
