<svg id="manos" xmlns="http://www.w3.org/2000/svg" xmlns:xlink="http://www.w3.org/1999/xlink" width="120.51" height="97.679" viewBox="0 0 120.51 97.679">
  <defs>
    <clipPath id="clip-path">
      <rect id="Rectángulo_46" data-name="Rectángulo 46" width="120.51" height="97.679" fill="#fff"/>
    </clipPath>
  </defs>
  <g id="Grupo_82" data-name="Grupo 82">
    <g id="Grupo_63" data-name="Grupo 63" clip-path="url(#clip-path)">
      <path id="Trazado_52" data-name="Trazado 52" d="M118.438,30.877c-.928-1.013-2-1.93-2.931-2.87q-2.628-2.651-5.261-5.3-10.276-10.324-20.6-20.6a6.62,6.62,0,0,0-9.674-.02c-2.247,2.189-4.442,4.43-6.659,6.648a5.97,5.97,0,0,0-1.524,6.277,1.548,1.548,0,0,1-.308,1.269Q67.874,20,64.16,23.607A1.771,1.771,0,0,1,62.848,24c-2.015-.286-4.032-.6-6.017-1.048a5.037,5.037,0,0,1-2.238-1.121c-1.9-1.757-3.67-3.647-5.527-5.45a1.257,1.257,0,0,1-.351-1.524,5.448,5.448,0,0,0-1.224-5.786C45.1,6.581,42.685,4.111,40.163,1.76A6.525,6.525,0,0,0,31.1,1.9C28.09,4.84,19.271,13.694,15.344,17.65q-.164.138-.324.3c-4.287,4.307-8.6,8.591-12.881,12.9a6.621,6.621,0,0,0-.084,9.668c2.182,2.252,4.421,4.451,6.649,6.658a5.821,5.821,0,0,0,6.363,1.52,1.365,1.365,0,0,1,1.1.218c3.344,2.694,5.323,6.389,7.4,10.139-2.83,2.329-4.817,5.1-3.956,8.955.852,3.814,3.489,5.78,7.332,6.311a7.971,7.971,0,0,0,9.721,9.692A7.983,7.983,0,0,0,40.5,90.394a8.332,8.332,0,0,0,7.339.512c.786,3.54,2.8,5.842,6.239,6.58s6.176-.692,8.336-3.337c4.741,6,13.734,3.9,14.81-3.8a7.929,7.929,0,0,0,6.818-1.154,8.057,8.057,0,0,0,3.351-6c6.971.479,9.754-2.312,9.827-9.73a1.374,1.374,0,0,1,.308-.118A7.557,7.557,0,0,0,104.194,68a7.67,7.67,0,0,0-2.2-8.373c-1.288-1.26-2.565-2.53-3.84-3.789a2.149,2.149,0,0,1,.237-.488c2.038-2.214,4.076-4.428,6.146-6.612a.957.957,0,0,1,.822-.083,5.948,5.948,0,0,0,6.725-1.733c1.7-1.739,3.4-3.473,5.162-5.151a10.235,10.235,0,0,0,3.243-4.918,7.68,7.68,0,0,0-.481-3.809,10.173,10.173,0,0,0-1.573-2.167M18.432,46.3,46.24,18.489A53.619,53.619,0,0,1,50.1,22.417,12.269,12.269,0,0,0,59.124,27a39.929,39.929,0,0,1,5.665,1,18.216,18.216,0,0,1,8.9,5c2.052,2.051,4.113,4.095,6.154,6.157,1.966,1.988,1.364,4.4-1.319,5.252a7.319,7.319,0,0,1-7.7-1.839c-1.873-1.785-3.709-3.613-5.484-5.494a3,3,0,0,0-2.845-.924c-3.069.381-6.144.762-9.229.971-3.724.253-7.442.217-11.017-1.163a1.7,1.7,0,0,0-2.319,1,1.738,1.738,0,0,0,1.094,2.271c.457.216.935.389,1.407.582l-16.4,16.409c-2.014-3.671-4.177-7.349-7.6-9.932M73.081,91.774a4.086,4.086,0,0,1-3.642,2.351c-3.19.043-6.917-4.1-6.426-6.981a4.275,4.275,0,0,1,6.87-2.728,17.544,17.544,0,0,1,2.81,2.826,3.993,3.993,0,0,1,.389,4.532m8.256-5.081a3.991,3.991,0,0,1-4.61-.6,54.686,54.686,0,0,1-4.24-4.233,4.313,4.313,0,0,1,6.107-6.055,44.535,44.535,0,0,1,4.132,4.171A8.563,8.563,0,0,1,83.85,82.3c-.116,2.32-.927,3.64-2.513,4.39m11.248-8.185a4.194,4.194,0,0,1-5.75.387,82.509,82.509,0,0,1-5.88-5.9,6.663,6.663,0,0,1-1-2.16c.114-2.281.89-3.607,2.48-4.373a3.865,3.865,0,0,1,4.508.49c2.054,1.865,4.03,3.831,5.9,5.883a4.206,4.206,0,0,1-.261,5.672m7.344-15.929a4.088,4.088,0,0,1,.775,4.691c-.75,1.7-2.141,2.529-4.6,2.594a10.915,10.915,0,0,1-2.343-1.276A48.272,48.272,0,0,1,90,64.877a4.328,4.328,0,1,1,6.114-6.128c1.306,1.24,2.593,2.506,3.813,3.83M98.135,50.15c-.985,1.052-1.819,2.243-2.767,3.331a1.511,1.511,0,0,1-.985.551c-5.793-.185-8.81,2.513-9.251,8.437a7.99,7.99,0,0,0-8.66,8.711A8.307,8.307,0,0,0,70.155,73.6a7.986,7.986,0,0,0-2.21,6.274c-.637.074-1.211.123-1.78.208a7.782,7.782,0,0,0-6.293,10.337c.293.824.19,1.33-.454,1.775A11.384,11.384,0,0,1,56.6,93.978a4.082,4.082,0,0,1-4.7-2.042,4.222,4.222,0,0,1,.64-5.108c1.709-1.783,3.482-3.5,5.228-5.252.249-.25.51-.489.748-.749a1.833,1.833,0,0,0,.12-2.626,1.794,1.794,0,0,0-2.617.149c-2.509,2.481-5,4.986-7.491,7.481-.3.3-.6.619-.92.91a4.354,4.354,0,0,1-6.14-.046,4.278,4.278,0,0,1,.061-6.126c3.939-3.991,7.922-7.938,11.883-11.907a5.026,5.026,0,0,0,.847-.969,1.736,1.736,0,0,0-2.46-2.324,6.305,6.305,0,0,0-.955.868q-6.45,6.443-12.888,12.9a4.425,4.425,0,0,1-4.7,1.347,4.309,4.309,0,0,1-1.781-7.138c1.254-1.349,2.595-2.617,3.9-3.92q4.657-4.659,9.315-9.318a9.8,9.8,0,0,0,.733-.762,1.683,1.683,0,0,0-.1-2.428,1.645,1.645,0,0,0-2.341-.051c-.511.424-.96.924-1.431,1.394Q36.023,63.79,30.489,69.32a4.2,4.2,0,0,1-4.739,1.112,4.334,4.334,0,0,1-1.565-7.063Q35.322,52.213,46.491,41.09a1.781,1.781,0,0,1,1.232-.422,68.178,68.178,0,0,0,14.293-.843,1.661,1.661,0,0,1,1.632.57c1.643,1.683,3.258,3.4,5.011,4.968a10.7,10.7,0,0,0,11.909,2.051,6.27,6.27,0,0,0,2.49-9.885,89.315,89.315,0,0,0-8.345-8.273,54.561,54.561,0,0,0-6.586-4.281l6.483-6.486c.77.8,1.623,1.7,2.5,2.582,1.968,1.979,9.685,9.7,13.528,13.537.065.067.131.132.2.2l1.534,1.532,0,0q4.4,4.4,8.8,8.792a10.077,10.077,0,0,0,1.177.855c-1.56,1.529-2.941,2.8-4.219,4.162" transform="translate(0 0)" fill="#fff"/>
    </g>
  </g>
</svg>
