<svg id="infoAZUL" xmlns="http://www.w3.org/2000/svg" xmlns:xlink="http://www.w3.org/1999/xlink" width="45.15" height="45.556" viewBox="0 0 45.15 45.556">
  <defs>
    <clipPath id="clip-path">
      <rect id="Rectángulo_69" data-name="Rectángulo 69" width="45.15" height="45.556" fill="#1f2b5b"/>
    </clipPath>
  </defs>
  <g id="Grupo_97" data-name="Grupo 97" clip-path="url(#clip-path)">
    <path id="Trazado_84" data-name="Trazado 84" d="M22.575,45.556A22.779,22.779,0,0,1,22.575,0a22.779,22.779,0,0,1,0,45.556m0-40.678a17.9,17.9,0,1,0,17.741,17.9,17.842,17.842,0,0,0-17.741-17.9" fill="#1f2b5b"/>
    <path id="Trazado_85" data-name="Trazado 85" d="M161.415,70.132c.138.034.275.07.413.1a3.01,3.01,0,0,1-.321,5.939,3.251,3.251,0,0,1-3.251-1.315,2.9,2.9,0,0,1,.993-4.25,7.929,7.929,0,0,1,1.3-.476Z" transform="translate(-135.884 -60.429)" fill="#1f2b5b"/>
    <path id="Trazado_86" data-name="Trazado 86" d="M132.641,148.455c-.115.476-.22.929-.338,1.377a.269.269,0,0,1-.157.143c-.947.351-1.878.759-2.848,1.026a5.913,5.913,0,0,1-4.235-.229,3.108,3.108,0,0,1-1.865-3,12.5,12.5,0,0,1,.575-3.328q.731-2.624,1.422-5.259a4.17,4.17,0,0,0,.089-1.844,1.094,1.094,0,0,0-.908-.941,4.077,4.077,0,0,0-2.112.124c-.256.079-.51.166-.808.264.122-.494.229-.945.349-1.392a.267.267,0,0,1,.15-.146,19.709,19.709,0,0,1,3.553-1.158,5.629,5.629,0,0,1,3.586.381,3.3,3.3,0,0,1,1.742,3.132,24.358,24.358,0,0,1-1.135,5.159c-.287,1.108-.594,2.213-.858,3.327a4.056,4.056,0,0,0-.085,1.794,1.084,1.084,0,0,0,.8.895,4.037,4.037,0,0,0,2.261-.066c.265-.076.527-.164.822-.257" transform="translate(-104.651 -115.431)" fill="#1f2b5b"/>
  </g>
</svg>
