<svg id="escudo" xmlns="http://www.w3.org/2000/svg" xmlns:xlink="http://www.w3.org/1999/xlink" width="91.883" height="105.309" viewBox="0 0 91.883 105.309">
  <defs>
    <clipPath id="clip-path">
      <rect id="Rectángulo_41" data-name="Rectángulo 41" width="91.883" height="105.309" fill="#fff"/>
    </clipPath>
  </defs>
  <g id="Grupo_59" data-name="Grupo 59" clip-path="url(#clip-path)">
    <path id="Trazado_47" data-name="Trazado 47" d="M.03,36.424c0-4.665-.017-9.329.005-13.994.022-4.7,3.091-8.3,7.514-8.815A77.8,77.8,0,0,0,41.16,1.542,8.14,8.14,0,0,1,48.112.318,8.491,8.491,0,0,1,50.321,1.34,79.391,79.391,0,0,0,81.7,13.288c1.2.184,2.414.278,3.6.524a8.2,8.2,0,0,1,6.461,7.832c.059,10.22.336,20.466-.219,30.656A51.621,51.621,0,0,1,74.862,88.011a61.173,61.173,0,0,1-9.221,6.94c-4.967,3.162-10.132,5.975-15.184,8.99a8.183,8.183,0,0,1-9.086-.019c-5.932-3.577-12.078-6.792-17.826-10.671C10.779,84.639,3.168,72.249.7,56.435A71.165,71.165,0,0,1,.055,47.5C-.051,43.812.03,40.117.03,36.424m86.248-.312q0-7.149,0-14.3c0-1.567-.212-1.794-1.638-2.044-3.348-.586-6.721-1.056-10.032-1.823A86.035,86.035,0,0,1,47.252,6.287,2.042,2.042,0,0,0,44.73,6.21,88.685,88.685,0,0,1,7.249,19.789c-1.461.183-1.676.448-1.676,1.986,0,5.816-.025,11.632.006,17.448.023,4.279-.152,8.584.228,12.831C7.212,67.769,14.277,80,26.853,88.475,31.8,91.81,37.19,94.4,42.15,97.717c2.774,1.853,4.88,1.768,7.616-.037,5.464-3.606,11.4-6.444,16.715-10.264,11.73-8.432,18.3-20.363,19.533-35.324.434-5.289.2-15.979.264-15.979" transform="translate(0 0)" fill="#fff"/>
    <path id="Trazado_48" data-name="Trazado 48" d="M90.624,134.809a3.743,3.743,0,0,1-2.415-.88c-.246-.207-.475-.4-.689-.574-.451-.374-.877-.727-1.3-1.1-2.719-2.409-4.478-3.882-6.339-5.441-1.515-1.268-3.081-2.58-5.295-4.5a3.758,3.758,0,0,1,4.924-5.678c2.165,1.877,3.705,3.168,5.2,4.416,1.7,1.423,3.314,2.776,5.632,4.813l24.578-26.214a3.758,3.758,0,0,1,5.483,5.141L93.367,133.622a3.751,3.751,0,0,1-2.743,1.188" transform="translate(-47.625 -63.981)" fill="#fff"/>
  </g>
</svg>
