<svg xmlns="http://www.w3.org/2000/svg" xmlns:xlink="http://www.w3.org/1999/xlink" width="131.197" height="93.147" viewBox="0 0 131.197 93.147">
  <defs>
    <clipPath id="clip-path">
      <rect id="Rectángulo_52" data-name="Rectángulo 52" width="131.197" height="93.147" fill="#fff"/>
    </clipPath>
  </defs>
  <g id="usuariosicono" transform="translate(0 0)">
    <g id="Grupo_76" data-name="Grupo 76" transform="translate(0 0)">
      <g id="Grupo_76-2" data-name="Grupo 76" clip-path="url(#clip-path)">
        <path id="Trazado_67" data-name="Trazado 67" d="M131.2,195.487c-.151.293-.311.581-.45.88a5.593,5.593,0,0,1-5.546,3.367q-11.146-.013-22.291,0h-1.68c0,.529,0,.941,0,1.353a6.908,6.908,0,0,1-7.1,7.144c-1.281.029-2.562.006-3.843.006q-26.39,0-52.78,0c-4.367,0-7.049-2.392-7.6-6.883H28.446q-11.081,0-22.163,0c-4.066,0-6.306-2.2-6.269-6.229.039-4.131-.267-8.271.735-12.362a26.061,26.061,0,0,1,27.974-19.391,25.567,25.567,0,0,1,10.253,3.348c.758.453,1.157.269,1.722-.278a34.574,34.574,0,0,1,19.63-9.685c11.093-1.562,20.852,1.463,29.286,8.812.193.168.379.343.57.513.031.028.073.044-.094-.054a74.29,74.29,0,0,1,7.725-3.283,25.853,25.853,0,0,1,33.165,21.4,2.877,2.877,0,0,0,.216.583Zm-65.645,8.475q14.153,0,28.307,0c2.15,0,3.119-.959,3.154-3.119.021-1.278-.033-2.557-.018-3.835.052-4.482.174-8.963-1.037-13.351a31.467,31.467,0,0,0-40.005-21.582A30.96,30.96,0,0,0,34.3,189.743c-.217,3.571-.087,7.164-.124,10.746-.026,2.541.888,3.472,3.449,3.472q13.961,0,27.922,0" transform="translate(0 -115.096)" fill="#fff"/>
        <path id="Trazado_68" data-name="Trazado 68" d="M191.324,38.763a19.382,19.382,0,1,1,19.546-19.37,19.461,19.461,0,0,1-19.546,19.37m-.032-34.492a15.285,15.285,0,0,0-15.3,15.158,15.336,15.336,0,0,0,30.67-.079A15.252,15.252,0,0,0,191.292,4.271" transform="translate(-126.466 0)" fill="#fff"/>
        <path id="Trazado_69" data-name="Trazado 69" d="M371.568,65.38a15.219,15.219,0,1,1-15.217-15.071A15.208,15.208,0,0,1,371.568,65.38" transform="translate(-251.119 -37.034)" fill="#fff"/>
        <path id="Trazado_70" data-name="Trazado 70" d="M40.75,69.34a15.219,15.219,0,1,1,15.2,15.1,15.191,15.191,0,0,1-15.2-15.1" transform="translate(-29.998 -39.938)" fill="#fff"/>
      </g>
    </g>
  </g>
</svg>
